<?xml version="1.0" encoding="utf-8"?>
<!-- Generator: Adobe Illustrator 24.0.1, SVG Export Plug-In . SVG Version: 6.00 Build 0)  -->
<!DOCTYPE svg PUBLIC "-//W3C//DTD SVG 1.1//EN" "http://www.w3.org/Graphics/SVG/1.1/DTD/svg11.dtd" [
	<!ENTITY ns_extend "http://ns.adobe.com/Extensibility/1.0/">
	<!ENTITY ns_ai "http://ns.adobe.com/AdobeIllustrator/10.0/">
	<!ENTITY ns_graphs "http://ns.adobe.com/Graphs/1.0/">
	<!ENTITY ns_vars "http://ns.adobe.com/Variables/1.0/">
	<!ENTITY ns_imrep "http://ns.adobe.com/ImageReplacement/1.0/">
	<!ENTITY ns_sfw "http://ns.adobe.com/SaveForWeb/1.0/">
	<!ENTITY ns_custom "http://ns.adobe.com/GenericCustomNamespace/1.0/">
	<!ENTITY ns_adobe_xpath "http://ns.adobe.com/XPath/1.0/">
]>
<svg version="1.1" id="Layer_1" xmlns:x="&ns_extend;" xmlns:i="&ns_ai;" xmlns:graph="&ns_graphs;"
	 xmlns="http://www.w3.org/2000/svg" xmlns:xlink="http://www.w3.org/1999/xlink" x="0px" y="0px" viewBox="0 0 512 512"
	 style="enable-background:new 0 0 512 512;" xml:space="preserve">
<style type="text/css">
	.st0{fill:#FFD369;}
</style>
<metadata>
	<sfw  xmlns="&ns_sfw;">
		<slices></slices>
		<sliceSourceBounds  bottomLeftOrigin="true" height="512" width="434.1" x="39" y="0"></sliceSourceBounds>
	</sfw>
</metadata>
<g>
	<g>
		<path class="st0" d="M456.3,0h-66.8H278.3H55.7C46.4,0,39,7.5,39,16.7v478.5c0,9.2,7.5,16.8,16.8,16.8h400.5
			c9.2,0,16.8-7.5,16.8-16.8V16.7C473,7.5,465.6,0,456.3,0z M295,33.4h63.1c8.1,0,14.8,6.6,14.8,14.8v48.5
			c0,13.8-17.3,20.1-26.1,9.4l0,0c-3.2-3.8-7.9-6-12.8-6s-9.7,2.2-12.8,6l-0.1,0.1c-8.8,10.6-26.1,4.3-26.1-9.5V33.4L295,33.4z
			 M90.9,478.6h-3.9c-8.1,0-14.8-6.6-14.8-14.8V48.2c0-8.1,6.6-14.8,14.8-14.8h3.9c8.1,0,14.8,6.6,14.8,14.8l0,415.7
			C105.7,472,99.1,478.6,90.9,478.6z M439.7,478.6L439.7,478.6H153.9c-8.1,0-14.8-6.6-14.8-14.8V48.2c0-8.1,6.6-14.8,14.8-14.8h92.9
			c8.1,0,14.8,6.6,14.8,14.8v135.5c0,7,4.4,13.3,11,15.7s14,0.4,18.5-5l42.7-51.3c0,0,0.1,0,0.1,0l42.7,51.3c3.2,3.9,8,6,12.8,6
			c1.9,0,3.8-0.3,5.7-1c6.6-2.4,11-8.7,11-15.7V48.2c0-8.1,6.6-14.8,14.8-14.8h3.9c8.1,0,14.8,6.6,14.8,14.7L439.7,478.6
			L439.7,478.6z"/>
	</g>
</g>
<g>
	<g>
		<path class="st0" d="M356.2,311.7h-133c-9.9,0-18,8.1-17.2,18.1c0.7,8.6,7.9,15.3,16.6,15.3h133c9.9,0,18-8.1,17.2-18.1
			C372.2,318.5,364.9,311.7,356.2,311.7z"/>
	</g>
</g>
<g>
	<g>
		<path class="st0" d="M389.6,378.4H189.8c-9.9,0-18,8.1-17.2,18.1c0.7,8.6,7.9,15.3,16.6,15.3H389c9.9,0,18-8.1,17.2-18
			C405.5,385.2,398.4,378.4,389.6,378.4z"/>
	</g>
</g>
</svg>
