<?xml version="1.0" encoding="utf-8"?>
<!-- Generator: Adobe Illustrator 24.0.1, SVG Export Plug-In . SVG Version: 6.00 Build 0)  -->
<!DOCTYPE svg PUBLIC "-//W3C//DTD SVG 1.1//EN" "http://www.w3.org/Graphics/SVG/1.1/DTD/svg11.dtd" [
	<!ENTITY ns_extend "http://ns.adobe.com/Extensibility/1.0/">
	<!ENTITY ns_ai "http://ns.adobe.com/AdobeIllustrator/10.0/">
	<!ENTITY ns_graphs "http://ns.adobe.com/Graphs/1.0/">
	<!ENTITY ns_vars "http://ns.adobe.com/Variables/1.0/">
	<!ENTITY ns_imrep "http://ns.adobe.com/ImageReplacement/1.0/">
	<!ENTITY ns_sfw "http://ns.adobe.com/SaveForWeb/1.0/">
	<!ENTITY ns_custom "http://ns.adobe.com/GenericCustomNamespace/1.0/">
	<!ENTITY ns_adobe_xpath "http://ns.adobe.com/XPath/1.0/">
]>
<svg version="1.1" id="Layer_1" xmlns:x="&ns_extend;" xmlns:i="&ns_ai;" xmlns:graph="&ns_graphs;"
	 xmlns="http://www.w3.org/2000/svg" xmlns:xlink="http://www.w3.org/1999/xlink" x="0px" y="0px" viewBox="0 0 48 48"
	 style="enable-background:new 0 0 48 48;" xml:space="preserve">
<style type="text/css">
	.st0{fill:none;}
	.st1{fill:#FFD369;}
	.st2{fill:none;stroke:#FFD369;stroke-width:8;stroke-miterlimit:10;}
</style>
<metadata>
	<sfw  xmlns="&ns_sfw;">
		<slices></slices>
		<sliceSourceBounds  bottomLeftOrigin="true" height="48" width="48" x="0" y="0"></sliceSourceBounds>
	</sfw>
</metadata>
<path class="st0" d="M0,0h48v48H0V0z"/>
<path class="st1" d="M24,4C12.9,4,4,12.9,4,24s8.9,20,20,20s20-9,20-20S35,4,24,4z M24,10c3.3,0,6,2.7,6,6c0,3.3-2.7,6-6,6
	s-6-2.7-6-6C18,12.7,20.7,10,24,10z M24,38.4c-5,0-9.4-2.6-12-6.4c0.1-4,8-6.2,12-6.2S35.9,28,36,32C33.4,35.8,29,38.4,24,38.4z"/>
<path class="st2" d="M41.7,32.3V15.7c0-1.2-0.6-2.3-1.7-2.9L25.7,4.5c-1-0.6-2.3-0.6-3.4,0L8,12.8c-1,0.6-1.7,1.7-1.7,2.9v16.5
	c0,1.2,0.6,2.3,1.7,2.9l14.3,8.3c1,0.6,2.3,0.6,3.4,0L40,35.2C41.1,34.6,41.7,33.5,41.7,32.3z"/>
</svg>
