<?xml version="1.0" encoding="utf-8"?>
<!-- Generator: Adobe Illustrator 24.0.1, SVG Export Plug-In . SVG Version: 6.00 Build 0)  -->
<!DOCTYPE svg PUBLIC "-//W3C//DTD SVG 1.1//EN" "http://www.w3.org/Graphics/SVG/1.1/DTD/svg11.dtd" [
	<!ENTITY ns_extend "http://ns.adobe.com/Extensibility/1.0/">
	<!ENTITY ns_ai "http://ns.adobe.com/AdobeIllustrator/10.0/">
	<!ENTITY ns_graphs "http://ns.adobe.com/Graphs/1.0/">
	<!ENTITY ns_vars "http://ns.adobe.com/Variables/1.0/">
	<!ENTITY ns_imrep "http://ns.adobe.com/ImageReplacement/1.0/">
	<!ENTITY ns_sfw "http://ns.adobe.com/SaveForWeb/1.0/">
	<!ENTITY ns_custom "http://ns.adobe.com/GenericCustomNamespace/1.0/">
	<!ENTITY ns_adobe_xpath "http://ns.adobe.com/XPath/1.0/">
]>
<svg version="1.1" id="Capa_1" xmlns:x="&ns_extend;" xmlns:i="&ns_ai;" xmlns:graph="&ns_graphs;"
	 xmlns="http://www.w3.org/2000/svg" xmlns:xlink="http://www.w3.org/1999/xlink" x="0px" y="0px" viewBox="0 0 495.5 495.5"
	 style="enable-background:new 0 0 495.5 495.5;" xml:space="preserve">
<style type="text/css">
	.st0{fill:#FFD369;}
</style>
<metadata>
	<sfw  xmlns="&ns_sfw;">
		<slices></slices>
		<sliceSourceBounds  bottomLeftOrigin="true" height="342.8" width="495.5" x="0" y="76.4"></sliceSourceBounds>
	</sfw>
</metadata>
<path id="XMLID_133_" class="st0" d="M466.5,76.4H29c-16,0-29,13-29,29v284.8c0,16,13,29,29,29h437.5c16,0,29-13,29-29V105.4
	C495.5,89.3,482.6,76.4,466.5,76.4z M252.6,125.1h108.9c6.8,0,12.3,5.5,12.3,12.3c0,6.8-5.5,12.3-12.3,12.3H252.6
	c-6.8,0-12.3-5.5-12.3-12.3C240.3,130.6,245.8,125.1,252.6,125.1z M192.8,214.6c-2.8,13.6-12.5,23.1-21.8,21.2
	c-0.9-0.2-1.7-0.6-2.6-0.9c-7.6,16.6-18.7,31.3-31.7,40.1v8.5c0,15,9.3,28.3,23.3,33.6c1.2,0.5,2.2,1.4,2.7,2.6
	c0.5,1.2,0.4,2.6-0.2,3.8l-19.6,39.6c-6,12.1-18.4,19.8-31.9,19.8c-13.5,0-25.9-7.7-31.9-19.8l-19.6-39.6c-0.6-1.2-0.6-2.5-0.2-3.8
	c0.5-1.2,1.5-2.2,2.7-2.6c14-5.3,23.3-18.7,23.3-33.6V275c-13.1-8.8-24.1-23.6-31.7-40.1c-0.8,0.4-1.7,0.7-2.6,0.9
	c-9.3,1.9-19-7.6-21.8-21.2c-2.7-13.6,2.5-26.1,11.8-28c0.5-0.1,1,0,1.5-0.1c0.5-40.9,31-74,68.6-74c37.6,0,68.1,33,68.6,74
	c0.5,0,1,0,1.5,0.1C190.3,188.5,195.6,201,192.8,214.6z M410.8,379.8H301.9c-6.8,0-12.3-5.5-12.3-12.3c0-6.8,5.5-12.3,12.3-12.3
	h108.9c6.8,0,12.3,5.5,12.3,12.3C423.1,374.3,417.6,379.8,410.8,379.8z M443.7,314.1h-191c-6.8,0-12.3-5.5-12.3-12.3
	c0-6.8,5.5-12.3,12.3-12.3h191c6.8,0,12.3,5.5,12.3,12.3C456,308.6,450.5,314.1,443.7,314.1z M443.7,248.4h-191
	c-6.8,0-12.3-5.5-12.3-12.3c0-6.8,5.5-12.3,12.3-12.3h191c6.8,0,12.3,5.5,12.3,12.3C456,242.8,450.5,248.4,443.7,248.4z"/>
</svg>
